Coordinates
version=1
nRows=4
nColumns=107
inDegrees=yes

Units are S.I. units (second, meters, Newtons, ...)
If the header above contains a line with 'inDegrees', this indicates whether rotational values are in degrees (yes) or radians (no).

endheader
time	sternoclavicular_r2	sternoclavicular_r3	unrotscap_r3	unrotscap_r2	acromioclavicular_r2	acromioclavicular_r3	acromioclavicular_r1	unrothum_r1	unrothum_r3	unrothum_r2	elv_angle	shoulder_elv	shoulder1_r2	shoulder_rot	elbow_flexion	pro_sup	deviation	flexion	proximal_distal_r1	proximal_distal_r3	cmc_flexion	cmc_abduction	mp_flexion	ip_flexion	mcp2_flexion	mcp2_abduction	pm2_flexion	md2_flexion	mcp3_flexion	mcp3_abduction	pm3_flexion	md3_flexion	mcp4_flexion	mcp4_abduction	pm4_flexion	md4_flexion	mcp5_flexion	mcp5_abduction	pm5_flexion	md5_flexion	bicpt_tx	bicpt_ty	bicpt_tz	bicpt2_tx	bicpt2_ty	bicpt2_tz	ptpt_tx	ptpt_ty	ptpt_tz	FCUpt_tx	FCUpt_ty	FCUpt_tz	EDCpt_tx	EDCpt_ty	EDCpt_tz	APLpt_tx	APLpt_ty	APLpt_tz	FPLpt_tx	FPLpt_ty	FPLpt_tz	FPLpt2_tx	FPLpt2_ty	FPLpt2_tz	PEC1pt2_tx	PEC1pt2_ty	PEC1pt2_tz	PEC1pt3_tx	PEC1pt3_ty	PEC1pt3_tz	PEC2pt2_tx	PEC2pt2_ty	PEC2pt2_tz	PEC2pt3_tx	PEC2pt3_ty	PEC2pt3_tz	PEC3pt2_tx	PEC3pt2_ty	PEC3pt2_tz	PEC3pt3_tx	PEC3pt3_ty	PEC3pt3_tz	DELT2pt2a_tx	DELT2pt2a_ty	DELT2pt2a_tz	DELT2pt2_tx	DELT2pt2_ty	DELT2pt2_tz	LAT1pt2_tx	LAT1pt2_ty	LAT1pt2_tz	LAT1pt3_tx	LAT1pt3_ty	LAT1pt3_tz	LAT2pt2_tx	LAT2pt2_ty	LAT2pt2_tz	LAT2pt3_tx	LAT2pt3_ty	LAT2pt3_tz	LAT3pt2_tx	LAT3pt2_ty	LAT3pt2_tz	LAT3pt3_tx	LAT3pt3_ty	LAT3pt3_tz
      0.00000000	     -0.31108132	      0.13175937	     -0.13175937	      0.31108132	     -0.06298764	      0.50904395	      0.22881175	     -0.22881175	     -0.50904395	      0.06298764	    103.14514637	     73.65126788	     -1.80022241	    -42.91998045	     30.48578624	     84.95291382	      0.35905808	     -0.54612267	      0.38176822	     -0.27306133	     41.99268719	     -6.56706150	     19.53095639	      7.04037920	    100.11602418	      9.94370363	     84.18648043	     75.11881707	     94.65249750	      0.04201109	     83.39077646	     50.05454006	     83.49740234	    -13.34948092	     98.70871285	     37.83932002	     96.13469007	    -14.08781499	    445.94126711	      5.61393736	      0.00090838	     -0.03109414	     -0.00486281	      0.01434689	     -0.01848161	     -0.00125458	      0.00127294	     -0.06895885	     -0.00689341	      0.01261789	     -0.18227304	      0.00005537	     -0.01019433	      0.00352072	     -0.00072389	      0.00030899	      0.00012360	      0.00061798	      0.00039551	      0.00118652	      0.00066742	     -0.00000738	     -0.00007016	     -0.00008419	      0.00241413	      0.00846990	      0.00589211	     -0.00789706	      0.01906751	     -0.01808549	      0.00241413	      0.00846990	      0.00589211	      0.00053193	      0.01767632	     -0.00928825	      0.00385155	      0.00471001	      0.01572720	      0.00000000	      0.00725132	      0.00000000	     -0.00691504	     -0.03195649	     -0.00597591	      0.02348907	     -0.00121794	     -0.01467382	     -0.00085927	      0.01440293	     -0.00589211	      0.00237321	      0.02078604	     -0.01718531	     -0.00576935	      0.01247981	     -0.00527835	     -0.01202972	      0.02635081	     -0.02950145	     -0.02258641	      0.01395284	     -0.00707871	     -0.01497577	      0.03044255	     -0.03686658
      0.03333333	     -0.31154261	      0.13195475	     -0.13195475	      0.31154261	     -0.06308104	      0.50979879	      0.22915105	     -0.22915105	     -0.50979879	      0.06308104	    103.03430398	     73.76048203	     -1.79828785	    -42.51246255	     30.34358854	     84.82681697	      0.36138499	     -0.54505872	      0.38355404	     -0.27252936	     41.97781796	     -6.89430068	     19.99607855	      6.70741370	    100.06879926	     10.37578814	     83.83641596	     77.09240361	     94.39184552	     -0.21868411	     83.50278503	     51.82704777	     84.15308261	    -13.39088974	     96.70189687	     40.28613572	     95.92882007	    -14.09373229	    446.51278873	      5.59520489	      0.00090367	     -0.03107784	     -0.00486019	      0.01435960	     -0.01844298	     -0.00127598	      0.00128226	     -0.06895283	     -0.00688326	      0.01260344	     -0.18227727	      0.00005200	     -0.01017919	      0.00351385	     -0.00071992	      0.00030888	      0.00012355	      0.00061775	      0.00039536	      0.00118608	      0.00066717	     -0.00000741	     -0.00007048	     -0.00008458	      0.00241771	      0.00848246	      0.00590084	     -0.00790877	      0.01909579	     -0.01811231	      0.00241771	      0.00848246	      0.00590084	      0.00053272	      0.01770253	     -0.00930202	      0.00385578	      0.00471699	      0.01573796	      0.00000000	      0.00727297	      0.00000000	     -0.00692530	     -0.03200388	     -0.00599390	      0.02337774	     -0.00120292	     -0.01442437	     -0.00086054	      0.01442428	     -0.00590084	      0.00237673	      0.02081686	     -0.01721079	     -0.00577791	      0.01249831	     -0.00528617	     -0.01204756	      0.02638988	     -0.02954520	     -0.02261990	      0.01397353	     -0.00708921	     -0.01499798	      0.03048769	     -0.03692125
      0.06666667	     -0.31113035	      0.13178013	     -0.13178013	      0.31113035	     -0.06299757	      0.50912418	      0.22884782	     -0.22884782	     -0.50912418	      0.06299757	    103.12201950	     73.66287662	     -1.79981877	    -43.12669824	     30.45735278	     85.31763419	      0.35401092	     -0.55122964	      0.37786465	     -0.27561482	     41.98479070	     -6.95066064	     19.85170842	      7.14026383	     99.49230517	     10.68932775	     83.69977969	     77.71526372	     93.90337336	     -0.38386141	     83.65812032	     53.29318557	     84.21874850	    -13.40280338	     95.25167547	     41.82729234	     95.49389867	    -14.09846124	    447.76792619	      5.55784034	      0.00090743	     -0.03109088	     -0.00486229	      0.01430992	     -0.01847389	     -0.00119257	      0.00124599	     -0.06897628	     -0.00692279	      0.01265968	     -0.18226078	      0.00006517	     -0.01023809	      0.00354064	     -0.00073543	      0.00030953	      0.00012381	      0.00061907	      0.00039620	      0.00118861	      0.00066859	     -0.00000740	     -0.00007033	     -0.00008440	      0.00241451	      0.00847124	      0.00589304	     -0.00789830	      0.01907052	     -0.01808834	      0.00241451	      0.00847124	      0.00589304	      0.00053201	      0.01767911	     -0.00928972	      0.00385200	      0.00471075	      0.01572835	      0.00000000	      0.00725362	      0.00000000	     -0.00691613	     -0.03196153	     -0.00597782	      0.02354474	     -0.00122557	     -0.01480081	     -0.00085940	      0.01440520	     -0.00589304	      0.00237358	      0.02078932	     -0.01718802	     -0.00577026	      0.01248178	     -0.00527918	     -0.01203161	      0.02635496	     -0.02950610	     -0.02258997	      0.01395503	     -0.00707983	     -0.01497813	      0.03044735	     -0.03687239
      0.10000000	     -0.31116720	      0.13179574	     -0.13179574	      0.31116720	     -0.06300503	      0.50918448	      0.22887492	     -0.22887492	     -0.50918448	      0.06300503	    103.09724937	     73.67160070	     -1.79938645	    -43.13799544	     30.44415551	     85.31708416	      0.35400631	     -0.55121069	      0.37786072	     -0.27560535	     41.98523371	     -6.95089331	     19.85214236	      7.14043595	     99.49037680	     10.68983414	     83.69956321	     77.71559503	     93.90148599	     -0.38428980	     83.65827287	     53.29347536	     84.21816118	    -13.40294493	     95.25089139	     41.82727886	     95.49371240	    -14.09849043	    447.76818395	      5.55790246	      0.00090700	     -0.03108937	     -0.00486205	      0.01430996	     -0.01847030	     -0.00119266	      0.00124603	     -0.06897625	     -0.00692275	      0.01265962	     -0.18226080	      0.00006516	     -0.01023803	      0.00354061	     -0.00073542	      0.00030952	      0.00012381	      0.00061904	      0.00039619	      0.00118856	      0.00066856	     -0.00000740	     -0.00007032	     -0.00008438	      0.00241479	      0.00847224	      0.00589373	     -0.00789924	      0.01907277	     -0.01809049	      0.00241479	      0.00847224	      0.00589373	      0.00053207	      0.01768120	     -0.00929082	      0.00385234	      0.00471131	      0.01572921	      0.00000000	      0.00725535	      0.00000000	     -0.00691695	     -0.03196532	     -0.00597926	      0.02354772	     -0.00122599	     -0.01480778	     -0.00085950	      0.01440690	     -0.00589373	      0.00237386	      0.02079178	     -0.01719005	     -0.00577095	      0.01248325	     -0.00527980	     -0.01203304	      0.02635808	     -0.02950959	     -0.02259264	      0.01395669	     -0.00708067	     -0.01497990	      0.03045095	     -0.03687676
